<svg width="937pt" height="508pt" viewBox="0 0 937 508" xmlns="http://www.w3.org/2000/svg" xmlns:xlink="http://www.w3.org/1999/xlink">
<g id="graph0" class="graph" transform="scale(1 1) rotate(0) translate(4 504)">
<title>Sections</title>
<polygon fill="#ffffff" stroke="transparent" points="-4,4 -4,-504 933.043,-504 933.043,4 -4,4"></polygon>
<g id="clust1" class="cluster">
<title>cluster_1</title>
<polygon fill="none" stroke="#000000" points="442,-224 442,-492 765,-492 765,-224 442,-224"></polygon>
</g>
<g id="clust2" class="cluster">
<title>cluster_2</title>
<polygon fill="none" stroke="#000000" points="8,-8 8,-348 434,-348 434,-8 8,-8"></polygon>
</g>
<g id="clust3" class="cluster">
<title>cluster_3</title>
<polygon fill="none" stroke="#000000" points="550,-8 550,-132 919,-132 919,-8 550,-8"></polygon>
</g>
<!-- arith_01 -->
<g id="node1" class="node">
<title>arith_01</title>
<ellipse fill="none" stroke="#000000" cx="547" cy="-466" rx="96.7177" ry="18"></ellipse>
<text text-anchor="middle" x="547" y="-461.8" font-family="Times,serif" font-size="14.00" fill="#000000">1.1 The Peano axioms</text>
</g>
<!-- arith_02 -->
<g id="node2" class="node">
<title>arith_02</title>
<ellipse fill="none" stroke="#000000" cx="541" cy="-394" rx="59.7166" ry="18"></ellipse>
<text text-anchor="middle" x="541" y="-389.8" font-family="Times,serif" font-size="14.00" fill="#000000">1.2 Addition</text>
</g>
<!-- arith_01&#45;&gt;arith_02 -->
<g id="edge1" class="edge">
<title>arith_01-&gt;arith_02</title>
<path fill="none" stroke="#000000" d="M545.4859,-447.8314C544.8442,-440.131 544.0812,-430.9743 543.3681,-422.4166"></path>
<polygon fill="#000000" stroke="#000000" points="546.8529,-422.088 542.5344,-412.4133 539.8771,-422.6694 546.8529,-422.088"></polygon>
</g>
<!-- arith_03 -->
<g id="node3" class="node">
<title>arith_03</title>
<ellipse fill="none" stroke="#000000" cx="541" cy="-322" rx="80.5585" ry="18"></ellipse>
<text text-anchor="middle" x="541" y="-317.8" font-family="Times,serif" font-size="14.00" fill="#000000">1.3 Multiplication</text>
</g>
<!-- arith_02&#45;&gt;arith_03 -->
<g id="edge2" class="edge">
<title>arith_02-&gt;arith_03</title>
<path fill="none" stroke="#000000" d="M541,-375.8314C541,-368.131 541,-358.9743 541,-350.4166"></path>
<polygon fill="#000000" stroke="#000000" points="544.5001,-350.4132 541,-340.4133 537.5001,-350.4133 544.5001,-350.4132"></polygon>
</g>
<!-- ord_01 -->
<g id="node6" class="node">
<title>ord_01</title>
<ellipse fill="none" stroke="#000000" cx="283" cy="-322" rx="60.2576" ry="18"></ellipse>
<text text-anchor="middle" x="283" y="-317.8" font-family="Times,serif" font-size="14.00" fill="#000000">2.1 Ordering</text>
</g>
<!-- arith_02&#45;&gt;ord_01 -->
<g id="edge5" class="edge">
<title>arith_02-&gt;ord_01</title>
<path fill="none" stroke="#000000" d="M496.9414,-381.7046C452.7355,-369.368 384.5734,-350.3461 337.1073,-337.0997"></path>
<polygon fill="#000000" stroke="#000000" points="337.8816,-333.6821 327.3088,-334.3652 335.9999,-340.4245 337.8816,-333.6821"></polygon>
</g>
<!-- arith_04 -->
<g id="node4" class="node">
<title>arith_04</title>
<ellipse fill="none" stroke="#000000" cx="535" cy="-250" rx="84.5575" ry="18"></ellipse>
<text text-anchor="middle" x="535" y="-245.8" font-family="Times,serif" font-size="14.00" fill="#000000">1.4 Exponentiation</text>
</g>
<!-- arith_03&#45;&gt;arith_04 -->
<g id="edge3" class="edge">
<title>arith_03-&gt;arith_04</title>
<path fill="none" stroke="#000000" d="M539.4859,-303.8314C538.8442,-296.131 538.0812,-286.9743 537.3681,-278.4166"></path>
<polygon fill="#000000" stroke="#000000" points="540.8529,-278.088 536.5344,-268.4133 533.8771,-278.6694 540.8529,-278.088"></polygon>
</g>
<!-- arith_05 -->
<g id="node5" class="node">
<title>arith_05</title>
<ellipse fill="none" stroke="#000000" cx="697" cy="-250" rx="59.6897" ry="18"></ellipse>
<text text-anchor="middle" x="697" y="-245.8" font-family="Times,serif" font-size="14.00" fill="#000000">1.5 Factorial</text>
</g>
<!-- arith_03&#45;&gt;arith_05 -->
<g id="edge4" class="edge">
<title>arith_03-&gt;arith_05</title>
<path fill="none" stroke="#000000" d="M576.3988,-305.6621C599.7545,-294.8826 630.4611,-280.7103 655.0444,-269.3641"></path>
<polygon fill="#000000" stroke="#000000" points="656.5254,-272.5355 664.1383,-265.167 653.5919,-266.1797 656.5254,-272.5355"></polygon>
</g>
<!-- ord_03 -->
<g id="node8" class="node">
<title>ord_03</title>
<ellipse fill="none" stroke="#000000" cx="293" cy="-178" rx="133.172" ry="18"></ellipse>
<text text-anchor="middle" x="293" y="-173.8" font-family="Times,serif" font-size="14.00" fill="#000000">2.3 Ordering and multiplication</text>
</g>
<!-- arith_03&#45;&gt;ord_03 -->
<g id="edge8" class="edge">
<title>arith_03-&gt;ord_03</title>
<path fill="none" stroke="#000000" d="M503.8701,-305.9564C484.1314,-296.4711 460.0735,-283.3228 441,-268 420.8562,-251.8173 423.9203,-239.1657 403,-224 388.7801,-213.6916 371.9027,-205.1633 355.6914,-198.3674"></path>
<polygon fill="#000000" stroke="#000000" points="356.8321,-195.0537 346.2485,-194.5659 354.2179,-201.5473 356.8321,-195.0537"></polygon>
</g>
<!-- div_01 -->
<g id="node12" class="node">
<title>div_01</title>
<ellipse fill="none" stroke="#000000" cx="841" cy="-106" rx="69.5399" ry="18"></ellipse>
<text text-anchor="middle" x="841" y="-101.8" font-family="Times,serif" font-size="14.00" fill="#000000">3.1 Divisibility</text>
</g>
<!-- arith_03&#45;&gt;div_01 -->
<g id="edge16" class="edge">
<title>arith_03-&gt;div_01</title>
<path fill="none" stroke="#000000" d="M609.1357,-312.3134C666.2548,-303.0109 742.189,-287.5076 766,-268 807.8952,-233.6766 827.5411,-170.7261 835.7915,-134.2248"></path>
<polygon fill="#000000" stroke="#000000" points="839.2578,-134.7506 837.912,-124.2416 832.4106,-133.2961 839.2578,-134.7506"></polygon>
</g>
<!-- ord_04 -->
<g id="node9" class="node">
<title>ord_04</title>
<ellipse fill="none" stroke="#000000" cx="289" cy="-106" rx="136.5899" ry="18"></ellipse>
<text text-anchor="middle" x="289" y="-101.8" font-family="Times,serif" font-size="14.00" fill="#000000">2.4 Ordering and exponentiation</text>
</g>
<!-- arith_04&#45;&gt;ord_04 -->
<g id="edge10" class="edge">
<title>arith_04-&gt;ord_04</title>
<path fill="none" stroke="#000000" d="M516.1711,-232.3506C489.7798,-207.7221 443.9959,-165.4358 435,-160 411.208,-145.6237 382.9649,-134.0824 357.6885,-125.4187"></path>
<polygon fill="#000000" stroke="#000000" points="358.7556,-122.0851 348.1619,-122.2393 356.5395,-128.7251 358.7556,-122.0851"></polygon>
</g>
<!-- ord_06 -->
<g id="node11" class="node">
<title>ord_06</title>
<ellipse fill="none" stroke="#000000" cx="308" cy="-34" rx="97.7937" ry="18"></ellipse>
<text text-anchor="middle" x="308" y="-29.8" font-family="Times,serif" font-size="14.00" fill="#000000">2.6 Standard exercises</text>
</g>
<!-- arith_04&#45;&gt;ord_06 -->
<g id="edge12" class="edge">
<title>arith_04-&gt;ord_06</title>
<path fill="none" stroke="#000000" d="M528.1933,-231.9295C514.979,-199.0721 482.8787,-129.1449 435,-88 416.9552,-72.4931 393.7998,-60.8912 372.2139,-52.4981"></path>
<polygon fill="#000000" stroke="#000000" points="373.3486,-49.1859 362.7557,-48.9805 370.9085,-55.7468 373.3486,-49.1859"></polygon>
</g>
<!-- div_03 -->
<g id="node14" class="node">
<title>div_03</title>
<ellipse fill="none" stroke="#000000" cx="656" cy="-34" rx="52.1867" ry="18"></ellipse>
<text text-anchor="middle" x="656" y="-29.8" font-family="Times,serif" font-size="14.00" fill="#000000">3.3 Primes</text>
</g>
<!-- arith_04&#45;&gt;div_03 -->
<g id="edge19" class="edge">
<title>arith_04-&gt;div_03</title>
<path fill="none" stroke="#000000" d="M585.3213,-235.4175C688.5077,-205.4034 914.8694,-138.9386 920,-132 931.6266,-116.2761 932.365,-103.1502 920,-88 894.978,-57.3418 787.7303,-43.6214 717.864,-37.8413"></path>
<polygon fill="#000000" stroke="#000000" points="718.0871,-34.3481 707.8413,-37.0451 717.5326,-41.3261 718.0871,-34.3481"></polygon>
</g>
<!-- arith_05&#45;&gt;ord_06 -->
<g id="edge13" class="edge">
<title>arith_05-&gt;ord_06</title>
<path fill="none" stroke="#000000" d="M677.1435,-232.8884C638.9359,-200.6872 551.556,-130.506 468,-88 438.537,-73.0118 403.989,-60.751 374.5509,-51.7226"></path>
<polygon fill="#000000" stroke="#000000" points="375.3624,-48.3119 364.7781,-48.7855 373.3475,-55.0157 375.3624,-48.3119"></polygon>
</g>
<!-- ord_02 -->
<g id="node7" class="node">
<title>ord_02</title>
<ellipse fill="none" stroke="#000000" cx="283" cy="-250" rx="110.6052" ry="18"></ellipse>
<text text-anchor="middle" x="283" y="-245.8" font-family="Times,serif" font-size="14.00" fill="#000000">2.2 Ordering and addition</text>
</g>
<!-- ord_01&#45;&gt;ord_02 -->
<g id="edge6" class="edge">
<title>ord_01-&gt;ord_02</title>
<path fill="none" stroke="#000000" d="M283,-303.8314C283,-296.131 283,-286.9743 283,-278.4166"></path>
<polygon fill="#000000" stroke="#000000" points="286.5001,-278.4132 283,-268.4133 279.5001,-278.4133 286.5001,-278.4132"></polygon>
</g>
<!-- ord_05 -->
<g id="node10" class="node">
<title>ord_05</title>
<ellipse fill="none" stroke="#000000" cx="79" cy="-178" rx="62.5663" ry="18"></ellipse>
<text text-anchor="middle" x="79" y="-173.8" font-family="Times,serif" font-size="14.00" fill="#000000">2.5 Induction</text>
</g>
<!-- ord_01&#45;&gt;ord_05 -->
<g id="edge11" class="edge">
<title>ord_01-&gt;ord_05</title>
<path fill="none" stroke="#000000" d="M242.7921,-308.5161C218.4218,-299.2588 187.4267,-285.4886 163,-268 137.758,-249.9276 114.1182,-223.3901 98.3885,-203.8113"></path>
<polygon fill="#000000" stroke="#000000" points="101.0873,-201.5811 92.1498,-195.8913 95.5884,-205.9127 101.0873,-201.5811"></polygon>
</g>
<!-- ord_02&#45;&gt;ord_03 -->
<g id="edge7" class="edge">
<title>ord_02-&gt;ord_03</title>
<path fill="none" stroke="#000000" d="M285.5234,-231.8314C286.5929,-224.131 287.8647,-214.9743 289.0532,-206.4166"></path>
<polygon fill="#000000" stroke="#000000" points="292.5336,-206.7997 290.4426,-196.4133 285.6001,-205.8367 292.5336,-206.7997"></polygon>
</g>
<!-- ord_03&#45;&gt;ord_04 -->
<g id="edge9" class="edge">
<title>ord_03-&gt;ord_04</title>
<path fill="none" stroke="#000000" d="M291.9906,-159.8314C291.5628,-152.131 291.0541,-142.9743 290.5787,-134.4166"></path>
<polygon fill="#000000" stroke="#000000" points="294.0724,-134.2037 290.023,-124.4133 287.0831,-134.592 294.0724,-134.2037"></polygon>
</g>
<!-- ord_03&#45;&gt;div_01 -->
<g id="edge17" class="edge">
<title>ord_03-&gt;div_01</title>
<path fill="none" stroke="#000000" d="M421.6042,-173.1875C516.741,-167.7534 649.0274,-156.2514 763,-132 772.5332,-129.9715 782.5299,-127.1754 792.0648,-124.1655"></path>
<polygon fill="#000000" stroke="#000000" points="793.3835,-127.4165 801.7951,-120.9747 791.2023,-120.765 793.3835,-127.4165"></polygon>
</g>
<!-- div_02 -->
<g id="node13" class="node">
<title>div_02</title>
<ellipse fill="none" stroke="#000000" cx="656" cy="-106" rx="97.8382" ry="18"></ellipse>
<text text-anchor="middle" x="656" y="-101.8" font-family="Times,serif" font-size="14.00" fill="#000000">3.2 Euclidean division</text>
</g>
<!-- ord_03&#45;&gt;div_02 -->
<g id="edge18" class="edge">
<title>ord_03-&gt;div_02</title>
<path fill="none" stroke="#000000" d="M368.2138,-163.0816C429.9823,-150.83 517.1086,-133.5487 579.2836,-121.2165"></path>
<polygon fill="#000000" stroke="#000000" points="580.2989,-124.5834 589.4268,-119.2046 578.9369,-117.7171 580.2989,-124.5834"></polygon>
</g>
<!-- ord_04&#45;&gt;ord_06 -->
<g id="edge14" class="edge">
<title>ord_04-&gt;ord_06</title>
<path fill="none" stroke="#000000" d="M293.7945,-87.8314C295.8489,-80.0463 298.296,-70.7729 300.5756,-62.1347"></path>
<polygon fill="#000000" stroke="#000000" points="303.9735,-62.9753 303.1409,-52.4133 297.2052,-61.1892 303.9735,-62.9753"></polygon>
</g>
<!-- ord_04&#45;&gt;div_03 -->
<g id="edge20" class="edge">
<title>ord_04-&gt;div_03</title>
<path fill="none" stroke="#000000" d="M365.4885,-90.9941C435.5346,-77.2521 537.5581,-57.2366 600.2008,-44.947"></path>
<polygon fill="#000000" stroke="#000000" points="601.1452,-48.3285 610.2844,-42.9687 599.7976,-41.4594 601.1452,-48.3285"></polygon>
</g>
<!-- ord_05&#45;&gt;ord_06 -->
<g id="edge15" class="edge">
<title>ord_05-&gt;ord_06</title>
<path fill="none" stroke="#000000" d="M87.4772,-159.8117C97.8344,-139.4961 117.2126,-106.979 143,-88 167.7549,-69.7808 198.9699,-57.508 227.5702,-49.3352"></path>
<polygon fill="#000000" stroke="#000000" points="228.8345,-52.6184 237.5625,-46.6123 226.9941,-45.8646 228.8345,-52.6184"></polygon>
</g>
<!-- ord_05&#45;&gt;div_03 -->
<g id="edge21" class="edge">
<title>ord_05-&gt;div_03</title>
<path fill="none" stroke="#000000" d="M124.4913,-165.5563C133.2404,-163.4678 142.3671,-161.4963 151,-160 275.9708,-138.3386 312.3582,-164.3404 435,-132 470.9881,-122.51 563.18,-79.1345 616.4299,-53.3785"></path>
<polygon fill="#000000" stroke="#000000" points="618.1094,-56.4539 625.5797,-48.9409 615.0547,-50.1556 618.1094,-56.4539"></polygon>
</g>
<!-- div_01&#45;&gt;div_03 -->
<g id="edge22" class="edge">
<title>div_01-&gt;div_03</title>
<path fill="none" stroke="#000000" d="M802.2179,-90.9064C772.4845,-79.3345 731.4186,-63.3521 700.3755,-51.2705"></path>
<polygon fill="#000000" stroke="#000000" points="701.2643,-47.8607 690.6758,-47.4954 698.7255,-54.3841 701.2643,-47.8607"></polygon>
</g>
<!-- div_02&#45;&gt;div_03 -->
<g id="edge23" class="edge">
<title>div_02-&gt;div_03</title>
<path fill="none" stroke="#000000" d="M656,-87.8314C656,-80.131 656,-70.9743 656,-62.4166"></path>
<polygon fill="#000000" stroke="#000000" points="659.5001,-62.4132 656,-52.4133 652.5001,-62.4133 659.5001,-62.4132"></polygon>
</g>
</g>
</svg>