<svg width="1637pt" height="436pt" viewBox="0 0 1637 436" xmlns="http://www.w3.org/2000/svg" xmlns:xlink="http://www.w3.org/1999/xlink">
<g id="graph0" class="graph" transform="scale(1 1) rotate(0) translate(4 432)">
<title>Sections</title>
<polygon fill="#ffffff" stroke="transparent" points="-4,4 -4,-432 1633,-432 1633,4 -4,4"></polygon>
<g id="clust1" class="cluster">
<title>cluster_1</title>
<polygon fill="none" stroke="#000000" points="8,-224 8,-420 936,-420 936,-224 8,-224"></polygon>
</g>
<g id="clust2" class="cluster">
<title>cluster_2</title>
<polygon fill="none" stroke="#000000" points="944,-8 944,-348 1621,-348 1621,-8 944,-8"></polygon>
</g>
<!-- set_01 -->
<g id="node1" class="node">
<title>set_01</title>
<ellipse fill="none" stroke="#000000" cx="568" cy="-394" rx="41.7327" ry="18"></ellipse>
<text text-anchor="middle" x="568" y="-389.8" font-family="Times,serif" font-size="14.00" fill="#000000">1.1 Sets</text>
</g>
<!-- set_02 -->
<g id="node2" class="node">
<title>set_02</title>
<ellipse fill="none" stroke="#000000" cx="94" cy="-322" rx="77.6136" ry="18"></ellipse>
<text text-anchor="middle" x="94" y="-317.8" font-family="Times,serif" font-size="14.00" fill="#000000">1.2 The powerset</text>
</g>
<!-- set_01&#45;&gt;set_02 -->
<g id="edge1" class="edge">
<title>set_01-&gt;set_02</title>
<path fill="none" stroke="#000000" d="M526.5546,-391.4841C455.1686,-386.6188 304.6688,-374.025 180,-348 169.5862,-345.8261 158.6171,-342.9651 148.1277,-339.9374"></path>
<polygon fill="#000000" stroke="#000000" points="148.8344,-336.4961 138.2516,-337.0004 146.8391,-343.2057 148.8344,-336.4961"></polygon>
</g>
<!-- set_03 -->
<g id="node3" class="node">
<title>set_03</title>
<ellipse fill="none" stroke="#000000" cx="307" cy="-322" rx="117.5029" ry="18"></ellipse>
<text text-anchor="middle" x="307" y="-317.8" font-family="Times,serif" font-size="14.00" fill="#000000">1.3 The axiom of regularity</text>
</g>
<!-- set_01&#45;&gt;set_03 -->
<g id="edge2" class="edge">
<title>set_01-&gt;set_03</title>
<path fill="none" stroke="#000000" d="M532.8004,-384.2898C492.2311,-373.0982 424.6438,-354.4535 373.9655,-340.4733"></path>
<polygon fill="#000000" stroke="#000000" points="374.6391,-337.0284 364.0684,-337.743 372.7775,-343.7763 374.6391,-337.0284"></polygon>
</g>
<!-- set_04 -->
<g id="node4" class="node">
<title>set_04</title>
<ellipse fill="none" stroke="#000000" cx="568" cy="-322" rx="125.022" ry="18"></ellipse>
<text text-anchor="middle" x="568" y="-317.8" font-family="Times,serif" font-size="14.00" fill="#000000">1.4 The symmetric difference</text>
</g>
<!-- set_01&#45;&gt;set_04 -->
<g id="edge3" class="edge">
<title>set_01-&gt;set_04</title>
<path fill="none" stroke="#000000" d="M568,-375.8314C568,-368.131 568,-358.9743 568,-350.4166"></path>
<polygon fill="#000000" stroke="#000000" points="571.5001,-350.4132 568,-340.4133 564.5001,-350.4133 571.5001,-350.4132"></polygon>
</g>
<!-- set_06 -->
<g id="node6" class="node">
<title>set_06</title>
<ellipse fill="none" stroke="#000000" cx="820" cy="-322" rx="108.2938" ry="18"></ellipse>
<text text-anchor="middle" x="820" y="-317.8" font-family="Times,serif" font-size="14.00" fill="#000000">1.6 The axiom of infinity</text>
</g>
<!-- set_01&#45;&gt;set_06 -->
<g id="edge5" class="edge">
<title>set_01-&gt;set_06</title>
<path fill="none" stroke="#000000" d="M602.7749,-384.0643C642.0597,-372.8401 706.8447,-354.3301 755.4615,-340.4396"></path>
<polygon fill="#000000" stroke="#000000" points="756.6121,-343.751 765.2658,-337.6384 754.689,-337.0203 756.6121,-343.751"></polygon>
</g>
<!-- fun_01 -->
<g id="node7" class="node">
<title>fun_01</title>
<ellipse fill="none" stroke="#000000" cx="1157" cy="-322" rx="63.7277" ry="18"></ellipse>
<text text-anchor="middle" x="1157" y="-317.8" font-family="Times,serif" font-size="14.00" fill="#000000">2.1 Functions</text>
</g>
<!-- set_01&#45;&gt;fun_01 -->
<g id="edge6" class="edge">
<title>set_01-&gt;fun_01</title>
<path fill="none" stroke="#000000" d="M608.4844,-389.0511C707.8344,-376.9065 964.5775,-345.5219 1088.3203,-330.3955"></path>
<polygon fill="#000000" stroke="#000000" points="1088.9332,-333.8467 1098.4346,-329.1591 1088.0838,-326.8984 1088.9332,-333.8467"></polygon>
</g>
<!-- set_05 -->
<g id="node5" class="node">
<title>set_05</title>
<ellipse fill="none" stroke="#000000" cx="233" cy="-250" rx="111.1615" ry="18"></ellipse>
<text text-anchor="middle" x="233" y="-245.8" font-family="Times,serif" font-size="14.00" fill="#000000">1.5 The Cartesian product</text>
</g>
<!-- set_02&#45;&gt;set_05 -->
<g id="edge4" class="edge">
<title>set_02-&gt;set_05</title>
<path fill="none" stroke="#000000" d="M125.8894,-305.4817C145.1596,-295.5001 169.9501,-282.659 190.8274,-271.8448"></path>
<polygon fill="#000000" stroke="#000000" points="192.5385,-274.9002 199.8082,-267.1929 189.3189,-268.6846 192.5385,-274.9002"></polygon>
</g>
<!-- fun_05 -->
<g id="node11" class="node">
<title>fun_05</title>
<ellipse fill="none" stroke="#000000" cx="1227" cy="-106" rx="126.8089" ry="18"></ellipse>
<text text-anchor="middle" x="1227" y="-101.8" font-family="Times,serif" font-size="14.00" fill="#000000">2.5 Functions and set-systems</text>
</g>
<!-- set_02&#45;&gt;fun_05 -->
<g id="edge11" class="edge">
<title>set_02-&gt;fun_05</title>
<path fill="none" stroke="#000000" d="M91.7001,-303.7798C90.009,-281.464 91.0357,-244.1528 113,-224 184.1091,-158.7557 814.6194,-123.749 1094.3427,-111.3124"></path>
<polygon fill="#000000" stroke="#000000" points="1094.7148,-114.7995 1104.5507,-110.8616 1094.406,-107.8063 1094.7148,-114.7995"></polygon>
</g>
<!-- fun_06 -->
<g id="node12" class="node">
<title>fun_06</title>
<ellipse fill="none" stroke="#000000" cx="1045" cy="-250" rx="92.66" ry="18"></ellipse>
<text text-anchor="middle" x="1045" y="-245.8" font-family="Times,serif" font-size="14.00" fill="#000000">2.6 Cantor's theorem</text>
</g>
<!-- set_02&#45;&gt;fun_06 -->
<g id="edge13" class="edge">
<title>set_02-&gt;fun_06</title>
<path fill="none" stroke="#000000" d="M148.8336,-309.1673C159.1397,-307.1418 169.8619,-305.2927 180,-304 515.4405,-261.227 603.834,-304.6367 940,-268 949.2793,-266.9887 958.9808,-265.6766 968.5773,-264.2215"></path>
<polygon fill="#000000" stroke="#000000" points="969.1821,-267.6695 978.5179,-262.6601 968.0958,-260.7543 969.1821,-267.6695"></polygon>
</g>
<!-- fun_04 -->
<g id="node10" class="node">
<title>fun_04</title>
<ellipse fill="none" stroke="#000000" cx="1131" cy="-178" rx="178.818" ry="18"></ellipse>
<text text-anchor="middle" x="1131" y="-173.8" font-family="Times,serif" font-size="14.00" fill="#000000">2.4 Functions and the symmetric difference</text>
</g>
<!-- set_04&#45;&gt;fun_04 -->
<g id="edge9" class="edge">
<title>set_04-&gt;fun_04</title>
<path fill="none" stroke="#000000" d="M627.6776,-306.0964C701.6039,-286.4668 831.4476,-252.2217 943,-224 978.7267,-214.9615 1018.3469,-205.2247 1051.9674,-197.0468"></path>
<polygon fill="#000000" stroke="#000000" points="1052.8479,-200.4348 1061.7388,-194.6727 1051.1952,-193.6326 1052.8479,-200.4348"></polygon>
</g>
<!-- fun_02 -->
<g id="node8" class="node">
<title>fun_02</title>
<ellipse fill="none" stroke="#000000" cx="1280" cy="-250" rx="104.2014" ry="18"></ellipse>
<text text-anchor="middle" x="1280" y="-245.8" font-family="Times,serif" font-size="14.00" fill="#000000">2.2 Image and preimage</text>
</g>
<!-- fun_01&#45;&gt;fun_02 -->
<g id="edge7" class="edge">
<title>fun_01-&gt;fun_02</title>
<path fill="none" stroke="#000000" d="M1184.9106,-305.6621C1201.7223,-295.8211 1223.3645,-283.1525 1241.7539,-272.388"></path>
<polygon fill="#000000" stroke="#000000" points="1243.6226,-275.3497 1250.4847,-267.2773 1240.0864,-269.3086 1243.6226,-275.3497"></polygon>
</g>
<!-- fun_01&#45;&gt;fun_05 -->
<g id="edge12" class="edge">
<title>fun_01-&gt;fun_05</title>
<path fill="none" stroke="#000000" d="M1153.0166,-303.8715C1149.3694,-281.9995 1147.1694,-245.4944 1167,-224 1213.5794,-173.5126 1275.0467,-248.7895 1319,-196 1329.2377,-183.7041 1326.9502,-173.885 1319,-160 1311.1491,-146.2884 1298.3136,-135.7186 1284.6877,-127.7193"></path>
<polygon fill="#000000" stroke="#000000" points="1286.123,-124.5162 1275.6638,-122.8266 1282.7865,-130.6699 1286.123,-124.5162"></polygon>
</g>
<!-- fun_01&#45;&gt;fun_06 -->
<g id="edge14" class="edge">
<title>fun_01-&gt;fun_06</title>
<path fill="none" stroke="#000000" d="M1131.3049,-305.4817C1116.3743,-295.8835 1097.3307,-283.6412 1080.9327,-273.0996"></path>
<polygon fill="#000000" stroke="#000000" points="1082.4422,-269.9092 1072.1378,-267.4457 1078.6569,-275.7974 1082.4422,-269.9092"></polygon>
</g>
<!-- fun_09 -->
<g id="node15" class="node">
<title>fun_09</title>
<ellipse fill="none" stroke="#000000" cx="1508" cy="-250" rx="105.3257" ry="18"></ellipse>
<text text-anchor="middle" x="1508" y="-245.8" font-family="Times,serif" font-size="14.00" fill="#000000">2.9 The axiom of choice</text>
</g>
<!-- fun_01&#45;&gt;fun_09 -->
<g id="edge18" class="edge">
<title>fun_01-&gt;fun_09</title>
<path fill="none" stroke="#000000" d="M1208.7913,-311.3762C1267.1972,-299.3954 1362.7956,-279.7855 1430.1895,-265.9611"></path>
<polygon fill="#000000" stroke="#000000" points="1431.244,-269.3178 1440.3367,-263.8797 1429.8373,-262.4606 1431.244,-269.3178"></polygon>
</g>
<!-- fun_03 -->
<g id="node9" class="node">
<title>fun_03</title>
<ellipse fill="none" stroke="#000000" cx="1449" cy="-178" rx="101.3279" ry="18"></ellipse>
<text text-anchor="middle" x="1449" y="-173.8" font-family="Times,serif" font-size="14.00" fill="#000000">2.3 Invertible functions</text>
</g>
<!-- fun_02&#45;&gt;fun_03 -->
<g id="edge8" class="edge">
<title>fun_02-&gt;fun_03</title>
<path fill="none" stroke="#000000" d="M1319.1968,-233.3008C1343.4261,-222.9782 1374.7108,-209.6498 1400.4958,-198.6645"></path>
<polygon fill="#000000" stroke="#000000" points="1401.8954,-201.8727 1409.7234,-194.7332 1399.1517,-195.4328 1401.8954,-201.8727"></polygon>
</g>
<!-- fun_02&#45;&gt;fun_04 -->
<g id="edge10" class="edge">
<title>fun_02-&gt;fun_04</title>
<path fill="none" stroke="#000000" d="M1244.6891,-232.937C1224.3581,-223.1126 1198.5836,-210.6578 1176.7179,-200.0919"></path>
<polygon fill="#000000" stroke="#000000" points="1178.1402,-196.892 1167.6135,-195.6924 1175.0945,-203.1947 1178.1402,-196.892"></polygon>
</g>
<!-- fun_07 -->
<g id="node13" class="node">
<title>fun_07</title>
<ellipse fill="none" stroke="#000000" cx="1449" cy="-106" rx="77.0332" ry="18"></ellipse>
<text text-anchor="middle" x="1449" y="-101.8" font-family="Times,serif" font-size="14.00" fill="#000000">2.7 Equipollency</text>
</g>
<!-- fun_03&#45;&gt;fun_07 -->
<g id="edge15" class="edge">
<title>fun_03-&gt;fun_07</title>
<path fill="none" stroke="#000000" d="M1449,-159.8314C1449,-152.131 1449,-142.9743 1449,-134.4166"></path>
<polygon fill="#000000" stroke="#000000" points="1452.5001,-134.4132 1449,-124.4133 1445.5001,-134.4133 1452.5001,-134.4132"></polygon>
</g>
<!-- fun_08 -->
<g id="node14" class="node">
<title>fun_08</title>
<ellipse fill="none" stroke="#000000" cx="1328" cy="-34" rx="184.186" ry="18"></ellipse>
<text text-anchor="middle" x="1328" y="-29.8" font-family="Times,serif" font-size="14.00" fill="#000000">2.8 The Cantor-Schröder-Bernstein theorem</text>
</g>
<!-- fun_05&#45;&gt;fun_08 -->
<g id="edge16" class="edge">
<title>fun_05-&gt;fun_08</title>
<path fill="none" stroke="#000000" d="M1251.9663,-88.2022C1264.8342,-79.0291 1280.7038,-67.7161 1294.6102,-57.8026"></path>
<polygon fill="#000000" stroke="#000000" points="1296.8598,-60.4973 1302.9709,-51.8425 1292.7964,-54.7974 1296.8598,-60.4973"></polygon>
</g>
<!-- fun_07&#45;&gt;fun_08 -->
<g id="edge17" class="edge">
<title>fun_07-&gt;fun_08</title>
<path fill="none" stroke="#000000" d="M1420.6309,-89.1192C1404.5705,-79.5626 1384.2545,-67.4737 1366.7437,-57.0541"></path>
<polygon fill="#000000" stroke="#000000" points="1368.2632,-53.8856 1357.8798,-51.7797 1364.6837,-59.9011 1368.2632,-53.8856"></polygon>
</g>
</g>
</svg>